#!OML:ASF F:\VICON\USERDATA\INSTALL\rory3\rory3.ASF
:FULLY-SPECIFIED
:DEGREES
18
root 3.01324 14.4438 -40.0518 79.7339 2.67243 5.71664
lowerback 9.35405 14.3664 0.346492
upperback -2.03187 20.7984 11.0719
thorax -11.5965 10.446 7.35431
lowerneck -8.64891 -14.733 10.4585
upperneck -8.73098 -21.7263 -7.43506
head -3.20387 -11.292 -3.39858
rclavicle 9.85972e-014 -3.57812e-015
rhumerus 24.2599 -17.1805 -27.5122
rradius 33.2485
rwrist 13.6908
rhand -30.1639 -72.6513
rfingers 7.12502
rthumb 176.524 -77.3973
lclavicle 9.85972e-014 -3.57812e-015
lhumerus 84.4961 -30.7045 72.5058
lradius 18.7342
lwrist -50.0164
lhand -45.4999 -60.818
lfingers 7.12502
lthumb -18.2646 -31.6555
rfemur -126.137 4.57408 15.4988
rtibia 68.9165
rfoot -19.541 -21.8757
rtoes 13.4034
lfemur -49.0227 -4.87979 -29.3476
ltibia 34.7853
lfoot -11.7356 9.19519
ltoes -30.148
19
root 3.0372 14.4019 -39.8341 82.217 1.92958 6.04461
lowerback 8.08996 14.9559 -0.607869
upperback -2.40351 21.6781 11.4611
thorax -12.0308 11.0211 8.219
lowerneck -8.0376 -15.013 11.1031
upperneck -9.22337 -22.3745 -8.93679
head -3.74192 -11.6055 -3.76027
rclavicle -1.24042e-013 -1.80024e-014
rhumerus 24.2585 -17.822 -24.6375
rradius 33.5757
rwrist 13.6249
rhand -30.1072 -73.6189
rfingers 7.12502
rthumb 176.579 -76.4288
lclavicle -1.24042e-013 -1.80024e-014
lhumerus 78.2854 -32.1967 89.1435
lradius 17.4034
lwrist -64.0359
lhand -47.6428 -67.4953
lfingers 7.12502
lthumb -20.3252 -38.5389
rfemur -127.882 4.06728 14.4894
rtibia 68.9739
rfoot -20.0683 -22.063
rtoes 13.3191
lfemur -49.5026 -4.83347 -30.2569
ltibia 34.3827
lfoot -10.5253 9.64444
ltoes -33.7477
20
root 3.05939 14.371 -39.608 84.5607 1.37167 6.37373
lowerback 7.05599 15.6788 -0.908167
upperback -2.63742 22.7307 11.5204
thorax -12.0929 11.587 8.35321
lowerneck -8.89928 -15.2392 12.4676
upperneck -9.25601 -23.1805 -10.6794
head -4.05508 -12.0668 -4.40676
rclavicle 0 5.1684e-015
rhumerus 23.872 -19.612 -22.087
rradius 34.3759
rwrist 13.4932
rhand -29.5979 -75.8822
rfingers 7.12502
rthumb 177.071 -74.1582
lclavicle 0 5.1684e-015
lhumerus 73.7166 -33.1567 102.622
lradius 16.5729
lwrist -74.807
lhand -47.2258 -72.6022
lfingers 7.12502
lthumb -19.9244 -43.6036
rfemur -129.372 3.532 13.7932
rtibia 68.9575
rfoot -20.2258 -22.4228
rtoes 12.0687
lfemur -49.6614 -4.42329 -31.2106
ltibia 34.113
lfoot -10.8856 9.32927
ltoes -34.894
21
root 3.07923 14.3559 -39.3675 86.8174 0.991033 6.77039
lowerback 6.00415 16.2834 -1.06495
upperback -2.88535 23.6611 11.6743
thorax -12.1434 12.0965 8.57425
lowerneck -9.81652 -15.432 13.6878
upperneck -8.88988 -23.9694 -12.6542
head -4.27272 -12.5196 -5.12256
rclavicle -3.49861e-014 2.70347e-014
rhumerus 23.9765 -21.3888 -19.8279
rradius 34.8386
rwrist 13.4445
rhand -28.9413 -77.8945
rfingers 7.12502
rthumb 177.705 -72.1381
lclavicle -3.49861e-014 2.70347e-014
lhumerus 70.8008 -33.9887 112.018
lradius 16.1806
lwrist -81.7664
lhand -46.6783 -74.1724
lfingers 7.12502
lthumb -19.3979 -45.12
rfemur -130.524 2.90234 13.4312
rtibia 68.8453
rfoot -20.5079 -22.6626
rtoes 10.333
lfemur -49.496 -3.57296 -32.2664
ltibia 33.8289
lfoot -11.3393 8.06175
ltoes -34.2436
22
root 3.09377 14.3298 -39.1277 88.9871 0.260546 7.23604
lowerback 5.04487 16.844 -1.58154
upperback -3.09256 24.5075 11.7437
thorax -12.3077 12.5872 8.866
lowerneck -10.5291 -15.4576 14.7993
upperneck -9.13224 -24.5476 -14.2325
head -4.64328 -12.8753 -5.69295
rclavicle 2.29e-013 5.08889e-014
rhumerus 24.2048 -23.1794 -17.7381
rradius 35.2044
rwrist 13.4277
rhand -28.5225 -79.1219
rfingers 7.12502
rthumb 178.109 -70.9067
lclavicle 2.29e-013 5.08889e-014
lhumerus 69.1214 -34.9789 118.66
lradius 16.0025
lwrist -86.492
lhand -46.597 -74.6739
lfingers 7.12502
lthumb -19.3198 -45.6136
rfemur -131.652 2.12486 12.5175
rtibia 68.7746
rfoot -20.4231 -23.0792
rtoes 7.45833
lfemur -48.9891 -2.80844 -33.6153
ltibia 33.6065
lfoot -11.697 7.37957
ltoes -34.0929
23
root 3.1049 14.3252 -38.8728 90.9344 -0.591024 7.73029
lowerback 4.9515 16.8221 -1.75811
upperback -3.83799 24.543 11.0551
thorax -12.8556 12.5909 8.14558
lowerneck -10.1371 -14.9531 17.8689
upperneck -9.57848 -24.372 -15.7557
head -5.37541 -12.833 -6.45235
rclavicle -2.22639e-014 -7.95139e-015
rhumerus 24.0189 -24.1617 -17.7269
rradius 36.0147
rwrist 13.4017
rhand -29.1906 -79.3596
rfingers 7.12502
rthumb 177.464 -70.6757
lclavicle -2.22639e-014 -7.95139e-015
lhumerus 69.1817 -35.7711 120.237
lradius 15.8154
lwrist -89.1202
lhand -46.2266 -77.3598
lfingers 7.12502
lthumb -18.9637 -48.2643
rfemur -132.421 1.26639 11.4349
rtibia 68.6152
rfoot -21.5251 -22.876
rtoes 8.26885
lfemur -48.0379 -2.17024 -34.9131
ltibia 33.4005
lfoot -11.9094 6.26733
ltoes -32.7242
24
root 3.11341 14.3284 -38.6089 92.5551 -1.05963 8.27903
lowerback 5.16068 16.7711 -1.37895
upperback -4.51765 24.5783 10.5168
thorax -13.3387 12.5377 7.27789
lowerneck -9.83762 -14.5839 20.4611
upperneck -9.93142 -24.2549 -16.8169
head -5.96539 -12.8204 -7.05349
rclavicle 8.5875e-014 1.02573e-013
rhumerus 24.5757 -25.2738 -18.2145
rradius 36.1511
rwrist 13.8728
rhand -31.8099 -78.1569
rfingers 7.12502
rthumb 174.935 -71.9237
lclavicle 8.5875e-014 1.02573e-013
lhumerus 69.8362 -36.6122 121.103
lradius 15.5536
lwrist -90.4503
lhand -44.0844 -86.0667
lfingers 7.12502
lthumb -16.9025 -56.7822
rfemur -132.727 0.437264 10.7595
rtibia 68.3896
rfoot -22.2662 -22.9087
rtoes 8.1373
lfemur -46.6445 -1.50372 -35.6547
ltibia 33.3119
lfoot -11.5729 5.73888
ltoes -33.1972
25
root 3.1236 14.324 -38.3509 94.4663 -1.52853 8.96057
lowerback 4.89598 16.6458 -1.23444
upperback -5.27204 24.5009 9.96252
thorax -13.7171 12.4776 6.6566
lowerneck -10.3046 -14.0575 23.551
upperneck -9.87187 -24.1444 -18.329
head -6.43024 -12.8723 -7.96715
rclavicle 1.27222e-013 1.35174e-014
rhumerus 24.9945 -26.3516 -18.7372
rradius 36.6549
rwrist 13.5063
rhand -35.1862 -76.4856
rfingers 7.12502
rthumb 171.675 -73.6984
lclavicle 1.27222e-013 1.35174e-014
lhumerus 72.2812 -37.8598 119.021
lradius 15.1931
lwrist -89.8119
lhand -45.2573 -85.0965
lfingers 7.12502
lthumb -18.0312 -55.9123
rfemur -133.21 -0.611304 9.99083
rtibia 68.031
rfoot -22.5918 -23.2467
rtoes 6.4012
lfemur -45.4321 -1.22955 -36.1366
ltibia 33.3595
lfoot -11.8058 4.74656
ltoes -34.0885
26
root 3.12853 14.3149 -38.1083 97.0472 -2.44036 9.62712
lowerback 3.93977 16.4841 -1.78587
upperback -6.1881 24.3257 9.19591
thorax -14.0706 12.4635 6.30725
lowerneck -11.0309 -13.405 26.6264
upperneck -9.47333 -23.9425 -20.056
head -6.7562 -12.8983 -9.03503
rclavicle 2.51264e-013 5.08889e-014
rhumerus 25.5031 -27.3526 -19.3688
rradius 37.44
rwrist 11.9384
rhand -36.1423 -77.2119
rfingers 7.12502
rthumb 170.753 -73.0109
lclavicle 2.51264e-013 5.08889e-014
lhumerus 74.045 -38.5753 118.677
lradius 14.9306
lwrist -89.1917
lhand -45.0547 -75.6387
lfingers 7.12502
lthumb -17.8363 -46.4366
rfemur -134.328 -1.94006 8.64779
rtibia 67.5433
rfoot -23.2846 -23.7351
rtoes 2.55681
lfemur -44.8501 -0.920904 -37.0493
ltibia 33.5889
lfoot -12.185 3.12587
ltoes -33.7093
27
root 3.13201 14.3059 -37.8673 99.8023 -3.15476 10.4281
lowerback 2.91923 16.2732 -1.65471
upperback -7.19734 24.11 8.37042
thorax -14.1628 12.3664 5.64893
lowerneck -11.026 -13.2563 27.4924
upperneck -9.08655 -23.7736 -20.2583
head -6.7281 -12.8231 -9.24554
rclavicle 5.725e-014 -5.40694e-014
rhumerus 26.7602 -28.1422 -20.0157
rradius 37.9504
rwrist 8.80948
rhand -33.637 -81.8226
rfingers 7.12502
rthumb 173.171 -68.3075
lclavicle 5.725e-014 -5.40694e-014
lhumerus 78.7658 -39.6043 113.436
lradius 14.7459
lwrist -86.0831
lhand -46.0119 -73.1168
lfingers 7.12502
lthumb -18.7571 -44.0011
rfemur -135.497 -3.50384 7.4866
rtibia 67.0397
rfoot -23.8528 -23.9063
rtoes 2.25764
lfemur -44.2701 -1.0375 -37.4071
ltibia 33.8035
lfoot -11.1828 1.52681
ltoes -34.3268
28
root 3.14219 14.2987 -37.6243 102.54 -3.62082 11.5387
lowerback 1.54502 15.9364 -1.58437
upperback -8.20377 23.7295 7.71091
thorax -14.1427 12.2326 5.32392
lowerneck -11.583 -12.943 28.768
upperneck -8.43618 -23.5316 -20.4704
head -6.55643 -12.7517 -9.58219
rclavicle 4.13472e-014 -4.92986e-014
rhumerus 27.2723 -28.2891 -20.2597
rradius 38.073
rwrist 7.05716
rhand -31.5639 -85.6153
rfingers 7.12502
rthumb 175.172 -64.4597
lclavicle 4.13472e-014 -4.92986e-014
lhumerus 85.5741 -40.0152 105.149
lradius 14.6065
lwrist -80.9973
lhand -45.5397 -59.5105
lfingers 7.12502
lthumb -18.3029 -30.3516
rfemur -136.447 -5.41672 6.63475
rtibia 66.4319
rfoot -24.3138 -23.863
rtoes 3.2193
lfemur -43.6075 -1.45344 -37.2091
ltibia 34.3095
lfoot -7.96555 0.376975
ltoes -28.3554
29
root 3.13454 14.2913 -37.3755 104.632 -4.39404 12.267
lowerback 0.751872 15.7227 -1.75571
upperback -8.92707 23.4858 7.14306
thorax -14.3 12.1534 5.00916
lowerneck -12.1361 -12.6668 30.0409
upperneck -7.7005 -23.4376 -21.093
head -6.45022 -12.7483 -10.037
rclavicle -1.49486e-013 -5.725e-014
rhumerus 27.4106 -28.5851 -20.6426
rradius 38.546
rwrist 4.25116
rhand -29.9661 -87.9261
rfingers 7.12502
rthumb 176.715 -62.1195
lclavicle -1.49486e-013 -5.725e-014
lhumerus 94.153 -39.0471 93.9896
lradius 14.8011
lwrist -72.6436
lhand -45.2402 -63.6246
lfingers 7.12502
lthumb -18.0147 -34.4389
rfemur -136.835 -6.92526 5.28012
rtibia 65.8361
rfoot -24.689 -24.2957
rtoes 3.12796
lfemur -42.2177 -0.983433 -37.3394
ltibia 34.9486
lfoot -7.57456 -0.105684
ltoes -30.0596
